<?xml version="1.0" standalone="no"?><!DOCTYPE svg PUBLIC "-//W3C//DTD SVG 1.1//EN" "http://www.w3.org/Graphics/SVG/1.1/DTD/svg11.dtd"><svg t="1628067521404" class="icon" viewBox="0 0 1551 1024" version="1.1" xmlns="http://www.w3.org/2000/svg" p-id="4392" xmlns:xlink="http://www.w3.org/1999/xlink" width="302.9296875" height="200"><defs><style type="text/css"></style></defs><path d="M67.8638351 511.60840182c0 389.71803884 315.94103098 705.65906982 705.65906982 705.65906984s705.65906982-315.94103098 705.65906845-705.65906984-315.94103098-705.65906982-705.65906845-705.65906843S67.8638351 121.890363 67.8638351 511.60840182z m0 0" fill="#e6e6e6" p-id="4393"></path><path d="M132.08585943 511.60840182C132.08585943 865.92600814 419.36193843 1153.20208715 773.67954338 1153.20208715c354.3176063 0 641.59368394-287.27607901 641.59368393-641.59368533 0-354.3176063-287.27607901-641.59368394-641.59368393-641.59368392-354.3176063 0-641.59368394 287.27607901-641.59368395 641.59368392z m0 0" fill="#e6e6e6" p-id="4394"></path><path d="M773.67954338 1153.20208715c174.49593792 0 333.01469004-69.86103165 448.61433408-182.95444962-9.86826178-37.90665862-20.98963664-69.70439183-33.52076434-85.52493922-50.12450669-62.65563302-277.72109411-93.20025456-277.72109411-93.20025454l-137.37247563 36.96682382-137.0591974-36.81018539s-226.34347436 29.76142519-276.46798105 92.4170596c-12.68776614 15.97718582-24.12241925 48.40147694-34.14732088 87.09133052C441.60468812 1083.81097219 599.4968837 1153.20208715 773.67954338 1153.20208715z m0 0" fill="#fcfcfc" p-id="4395"></path><path d="M482.64412799 441.43409329c-3.4460595-36.02698906 15.97718582-68.13800053 43.85894282-72.0539781s53.25728791 22.24274967 57.17326551 58.42637717c3.4460595 36.02698906-15.97718582 68.13800053-43.85894422 72.0539781-28.03839545 3.91597758-53.57056619-22.39938949-57.17326411-58.42637717m182.48453153 214.28226474v186.40050912H880.97731557v-186.40050912H665.12865952zM1006.28858159 499.86047046c-27.88175701-3.13278123-46.6784472-34.77387601-41.82263483-70.95750349 4.69917254-36.02698906 31.01453824-62.96891126 58.73965682-59.83613004 27.88175701 3.13278123 46.6784472 34.77387601 41.82263483 70.95750487-4.85581098 36.18362887-31.01453824 62.81227283-58.73965682 59.83612866" fill="#FFD9AC" p-id="4396"></path><path d="M773.67954338 137.8675502S544.20328637 147.57917354 544.20328637 270.38421486v249.05614214c0 48.24483711 78.00626369 185.77395259 148.02393381 191.56959835 35.24379409 2.81950297 81.13904493 6.57884211 81.13904493 6.57884074s46.2085291-3.91597758 81.13904492-6.57884074c70.0176701-5.95228558 147.24073744-143.32476125 147.24073883-191.56959835V276.80641716c0.62655653-122.17848479-228.0665055-138.93886697-228.06650548-138.93886696" fill="#FEE1B9" p-id="4397"></path><path d="M914.34144009 171.7015914c-64.37866276-28.50831354-140.6618967-33.99068105-140.66189671-33.99068103h-0.31327827c-10.02490161 0.4699167-229.0063389 12.53112633-229.00633891 132.51666468v249.05614211c0 48.24483711 78.00626369 185.77395259 148.0239338 191.56959838 35.24379409 2.81950297 81.13904493 6.57884211 81.13904492 6.57884211s46.2085291-3.91597758 81.13904495-6.57884211c70.0176701-5.95228558 148.02393378-143.32476125 148.02393378-191.56959838V276.80641716c-0.31327826-51.53425818-41.1960783-84.42846599-88.34444356-105.10482576" fill="#FEE1B9" p-id="4398"></path><path d="M633.800843 785.72679799l120.61209349 367.1620109c6.4222023 0.31327826 12.84440459 0.31327826 19.26660689 0.31327826 5.95228558 0 12.06120962-0.15663844 18.0134952-0.31327826l120.6120935-367.1620109-139.25214524 28.50831214-139.25214384-28.50831214z m0 0" fill="#e6e6e6" p-id="4399"></path><path d="M789.65673057 894.27768185l31.64109478-31.64109478-47.77492043-47.93155884-47.30500372 47.93155884 31.64109479 31.64109478-39.31641013 185.61731414 54.98031906 54.98031767 54.98031768-54.98031767-38.84649203-185.61731414z m0 0" fill="#d81e06" p-id="4400"></path><path d="M773.67954338 814.39174996l112.46686143-56.7033488 57.95646185 34.14732087-94.29672916 134.7096111-76.12659412-112.15358317z m0 0" fill="#ffffff" p-id="4401"></path><path d="M773.99282163 814.39174996L661.68259864 757.53176271l-57.95646048 34.14731949 113.87661431 134.70961251 56.39006916-111.99694475z m0 0" fill="#ffffff" p-id="4402"></path><path d="M1013.18070197 417.93823056h-21.92947141l-29.29150851-203.78744642s66.57161059-26.15872724 80.35584859 54.19712272c13.62759955 79.88593188-29.13487005 149.59032371-29.13486867 149.5903237m-490.90688701 0h21.92947141l29.29150851-203.78744642s-66.57161059-26.15872724-80.35584858 54.19712272c-13.62759955 79.88593188 29.13487005 149.59032371 29.13486866 149.5903237" fill="#61402F" p-id="4403"></path><path d="M548.11926397 234.51386425s93.20025456 72.52389481 222.42749816 72.52389619 251.40572839-39.94296663 307.0126026-148.80713015c-3.13278123 0.78319497-99.15254015-16.4471039-219.29471555-108.08096715-151.31335485-115.7562825-434.98673316 55.76351402-310.14538521 184.36420111" fill="#61402F" p-id="4404"></path></svg>